<svg width="642" height="366" viewBox="0 0 642 366" fill="none" xmlns="http://www.w3.org/2000/svg">
<g clip-path="url(#clip0)">
<path d="M589.166 207.176C591.084 204.657 592.368 202.753 592.368 202.753L590.625 199.769C588.568 197.156 587.38 193.72 587.286 190.116C586.85 182.394 587.14 157.298 587.14 157.298C587.14 157.298 548.658 137.29 551.853 156.07C554.902 173.621 554.757 188.888 552.578 195.734C552.295 196.583 551.816 197.316 551.198 197.845C550.58 198.374 549.849 198.677 549.093 198.718L549.279 198.855C546.828 198.715 544.593 198.554 542.703 198.367C542.703 198.367 538.492 208.02 540.961 211.881C543.421 215.554 570.389 221.317 576.759 219.101L585.541 225.567L589.166 207.176Z" fill="#9B643D"/>
<path d="M497.396 237.152C497.396 237.152 522.518 302.092 512.792 353.164C516.713 358.254 528.621 362.467 545.467 360.711C561.731 358.957 577.85 357.728 585.546 357.201C601.23 356.148 608.057 359.658 608.057 359.658C608.057 359.658 607.766 349.479 611.252 325.785C613.821 309.019 629.57 255.861 633.172 243.81C633.685 242.112 633.935 240.314 633.908 238.506C633.533 217.655 624.468 200.442 608.492 199.945L590.63 199.769C585.112 206.263 576.254 210.476 566.379 210.124C556.505 209.773 547.936 205.21 542.563 198.365C534.169 197.892 525.763 198.836 517.585 201.171C510.174 203.103 497.831 214.863 497.396 237.152Z" fill="#8867C8"/>
<path d="M549.093 198.716C549.093 198.716 555.482 204.859 569.424 204.859C583.365 204.859 590.622 199.769 590.622 199.769C588.565 197.157 587.376 193.72 587.283 190.116C586.847 182.394 587.137 157.298 587.137 157.298C587.137 157.298 548.655 137.29 551.849 156.07C554.899 173.621 554.754 188.888 552.575 195.734C552.292 196.582 551.813 197.314 551.196 197.842C550.578 198.371 549.848 198.674 549.093 198.716Z" fill="url(#paint0_radial)"/>
<path d="M557.951 144.835C558.17 144.015 558.636 143.325 559.258 142.903C559.953 142.584 560.712 142.523 561.436 142.728C562.107 142.941 562.713 143.387 563.177 144.011C563.641 144.634 563.945 145.408 564.05 146.238C564.045 146.329 564.013 146.415 563.96 146.479C563.906 146.544 563.835 146.583 563.76 146.589C563.614 146.589 563.614 146.589 563.469 146.413C562.824 145.449 561.969 144.72 561.001 144.308C560.554 144.125 560.074 144.094 559.613 144.218C559.152 144.341 558.728 144.615 558.387 145.009C558.241 145.185 558.097 145.009 557.951 145.009V144.835Z" fill="#5D4033"/>
<path d="M541.397 144.835C541.615 144.015 542.081 143.325 542.703 142.903C543.398 142.584 544.157 142.523 544.881 142.728C545.553 142.941 546.158 143.387 546.622 144.011C547.087 144.634 547.39 145.408 547.496 146.238C547.491 146.329 547.458 146.415 547.405 146.479C547.351 146.544 547.281 146.583 547.205 146.589C547.06 146.589 547.06 146.589 546.914 146.413C546.269 145.449 545.414 144.72 544.446 144.308C543.999 144.125 543.519 144.094 543.058 144.218C542.597 144.341 542.173 144.615 541.832 145.009C541.687 145.185 541.541 145.009 541.397 145.009V144.835Z" fill="#5D4033"/>
<path d="M560.71 157.12L590.335 157.296L590.479 136.409C590.459 133.701 589.569 131.108 587.999 129.177C586.428 127.245 584.298 126.126 582.058 126.054H560.86C559.343 126.04 557.839 126.388 556.434 127.077C555.028 127.767 553.749 128.785 552.67 130.073C551.591 131.361 550.733 132.894 550.144 134.583C549.556 136.273 549.25 138.086 549.242 139.919V143.079C549.218 144.916 549.497 146.74 550.063 148.445C550.629 150.15 551.47 151.701 552.538 153.009C553.606 154.316 554.878 155.353 556.282 156.059C557.685 156.765 559.19 157.126 560.71 157.12Z" fill="#CBC2CC"/>
<path d="M584.091 165.369C588.181 165.369 591.497 161.361 591.497 156.417C591.497 151.474 588.181 147.466 584.091 147.466C580 147.466 576.685 151.474 576.685 156.417C576.685 161.361 580 165.369 584.091 165.369Z" fill="#9B643D"/>
<path d="M557.951 192.046H561.144C567.248 192.067 573.109 189.158 577.439 183.958C581.768 178.758 584.212 171.693 584.233 164.316L584.378 145.712C584.392 142.712 583.422 139.827 581.68 137.689C579.939 135.551 577.567 134.334 575.085 134.304L540.813 134.128L540.668 170.81C540.644 173.578 541.072 176.324 541.928 178.891C542.785 181.458 544.052 183.796 545.658 185.769C547.264 187.742 549.177 189.313 551.287 190.39C553.396 191.467 555.661 192.03 557.951 192.046Z" fill="#9B643D"/>
<path d="M549.674 168.704L566.229 168.88C569.436 168.866 572.51 167.332 574.791 164.608C577.072 161.884 578.377 158.187 578.427 154.312L578.572 135.884C578.572 134.889 578.256 133.933 577.688 133.214C577.12 132.495 576.344 132.068 575.523 132.022L548.369 131.847C547.491 131.844 546.621 132.051 545.81 132.455C544.998 132.86 544.261 133.454 543.64 134.205C543.019 134.955 542.527 135.846 542.192 136.827C541.858 137.807 541.686 138.858 541.688 139.919L541.399 158.524C541.383 159.851 541.586 161.169 541.994 162.401C542.403 163.633 543.009 164.754 543.779 165.701C544.549 166.648 545.466 167.401 546.478 167.916C547.49 168.432 548.576 168.699 549.674 168.704Z" fill="#9B643D"/>
<path d="M549.529 136.059C555.218 134.254 561.072 133.311 566.955 133.253C572.941 132.955 578.936 133.487 584.822 134.839L584.676 131.328C584.531 123.255 580.319 115.884 572.333 117.287C559.989 119.394 562.603 115.006 557.23 114.656C552.147 114.304 551.131 120.268 548.952 120.447C543.87 120.623 544.741 112.549 537.041 114.656C530.65 116.401 526.874 142.903 549.529 136.059Z" fill="#CBC2CC"/>
<path d="M567.259 155.614C567.267 153.675 566.56 152.099 565.678 152.093C564.796 152.087 564.074 153.654 564.065 155.592C564.056 157.531 564.764 159.107 565.646 159.113C566.527 159.119 567.25 157.552 567.259 155.614Z" fill="#3A312E"/>
<path d="M540.815 189.941L558.387 190.116V171.511C558.387 171.034 558.295 170.564 558.118 170.138C557.942 169.711 557.686 169.34 557.37 169.054L553.885 166.248C553.698 166.105 553.538 165.916 553.413 165.695C553.289 165.473 553.204 165.223 553.163 164.96C553.122 164.697 553.126 164.426 553.175 164.165C553.225 163.904 553.318 163.658 553.449 163.442L556.499 157.83C557.231 156.47 557.633 154.889 557.661 153.267V133.259H539.946L540.815 189.941Z" fill="url(#paint1_radial)"/>
<path d="M585.833 130.969C585.833 130.969 572.912 128.163 573.779 139.218C574.361 145.536 575.813 146.589 579.153 146.94C581.622 147.116 586.124 147.993 586.124 147.993L585.833 130.969Z" fill="#CBC2CC"/>
<path d="M551.679 155.744C551.689 153.806 550.981 152.229 550.1 152.223C549.218 152.216 548.495 153.782 548.485 155.721C548.476 157.659 549.183 159.236 550.065 159.242C550.947 159.249 551.669 157.683 551.679 155.744Z" fill="#3A312E"/>
<g opacity="0.7">
<path opacity="0.7" d="M566.229 172.565C566.001 173.915 565.476 175.166 564.709 176.185C563.942 177.204 562.962 177.955 561.872 178.357C560.79 178.762 559.639 178.822 558.532 178.532C557.403 178.223 556.385 177.485 555.628 176.427C555.545 176.259 555.514 176.06 555.541 175.867C555.567 175.674 555.65 175.499 555.773 175.373C555.83 175.306 555.899 175.256 555.974 175.225C556.05 175.195 556.129 175.185 556.208 175.197C557.03 175.285 557.856 175.285 558.677 175.197L560.856 174.671C562.399 174.082 563.831 173.128 565.067 171.865C565.206 171.765 565.37 171.728 565.529 171.76C565.689 171.792 565.834 171.892 565.938 172.041C566.229 172.214 566.229 172.386 566.229 172.565Z" fill="#594539"/>
</g>
<path d="M517.58 201.178C510.174 203.108 497.831 214.868 497.392 237.157C497.392 237.157 522.514 302.096 512.784 353.169C516.705 358.259 528.613 362.472 545.459 360.716C561.723 358.962 577.842 357.733 585.538 357.206C601.222 356.153 608.049 359.663 608.049 359.663C608.049 359.663 607.758 349.484 611.244 325.79C613.813 309.024 629.562 255.866 633.163 243.815C633.677 242.117 633.927 240.319 633.9 238.511C633.525 217.66 624.46 200.447 608.484 199.949L590.622 199.774C585.104 206.268 576.245 210.48 566.371 210.129C556.497 209.778 547.928 205.215 542.555 198.37" fill="url(#paint2_radial)"/>
<path d="M529.634 309.111L594.691 315.43C607.325 316.658 617.269 306.83 620.975 291.209C626.512 273.508 631.07 253.559 632.869 245.337C633.106 244.251 633.025 243.098 632.64 242.075C632.255 241.053 631.589 240.222 630.755 239.725L584.38 212.056L582.784 279.101L529.347 288.408L529.634 309.111Z" fill="url(#paint3_radial)"/>
<path d="M208.448 265.89C217.374 269.458 222.331 262.942 224.122 257.594C229.967 240.167 242.383 216.128 249.401 203.365C252.841 198.398 256.318 183.048 246.22 176.516C241.135 173.09 236.174 172.368 227.272 184.264C218.787 195.6 207.533 219.082 200.655 249.412C200.008 255.535 202.392 263.469 208.448 265.89Z" fill="url(#paint4_radial)"/>
<path d="M320.338 267.619C311.412 271.185 306.455 264.669 304.663 259.323C298.819 241.896 286.403 217.857 279.385 205.094C275.945 200.126 271.703 183.528 281.801 176.996C286.886 173.572 290.212 171.71 301.514 185.993C310.256 197.04 321.253 220.809 328.131 251.141C328.779 257.263 326.398 265.196 320.338 267.619Z" fill="url(#paint5_radial)"/>
<path d="M296.239 320.86C293.966 321.415 229.515 321.253 228.909 320.799C223.181 247.037 225.611 195.604 225.611 195.604C225.611 176.475 242.435 170.594 258.891 169.717H267.168C284.72 169.717 300.103 176.046 300.103 195.174C300.105 195.177 301.941 256.377 296.239 320.86Z" fill="url(#paint6_radial)"/>
<path d="M551.017 303.17H458.99L440.877 239.793C440.718 239.231 440.672 238.632 440.743 238.044C440.814 237.456 441 236.897 441.286 236.413C441.571 235.93 441.949 235.536 442.386 235.264C442.823 234.992 443.307 234.85 443.799 234.85H528.517C529.359 234.868 530.176 235.2 530.856 235.8C531.536 236.4 532.046 237.24 532.316 238.204L551.017 303.17Z" fill="#B2B2B2"/>
<path d="M245.721 125.819C248.963 125.819 251.59 122.643 251.59 118.726C251.59 114.808 248.963 111.632 245.721 111.632C242.48 111.632 239.853 114.808 239.853 118.726C239.853 122.643 242.48 125.819 245.721 125.819Z" fill="#594539"/>
<path d="M258.738 97.8916C262.433 97.8916 265.428 94.2718 265.428 89.8066C265.428 85.3414 262.433 81.7217 258.738 81.7217C255.044 81.7217 252.049 85.3414 252.049 89.8066C252.049 94.2718 255.044 97.8916 258.738 97.8916Z" fill="#594539"/>
<path d="M250.016 103.488C253.71 103.488 256.705 99.868 256.705 95.4028C256.705 90.9376 253.71 87.3178 250.016 87.3178C246.321 87.3178 243.326 90.9376 243.326 95.4028C243.326 99.868 246.321 103.488 250.016 103.488Z" fill="#594539"/>
<path d="M245.358 114.648C249.053 114.648 252.048 111.029 252.048 106.563C252.048 102.098 249.053 98.4784 245.358 98.4784C241.664 98.4784 238.669 102.098 238.669 106.563C238.669 111.029 241.664 114.648 245.358 114.648Z" fill="#594539"/>
<path d="M283.243 125.819C286.484 125.819 289.112 122.643 289.112 118.726C289.112 114.808 286.484 111.632 283.243 111.632C280.002 111.632 277.374 114.808 277.374 118.726C277.374 122.643 280.002 125.819 283.243 125.819Z" fill="#594539"/>
<path d="M270.007 98.2088C273.702 98.2088 276.697 94.589 276.697 90.1238C276.697 85.6587 273.702 82.0389 270.007 82.0389C266.313 82.0389 263.318 85.6587 263.318 90.1238C263.318 94.589 266.313 98.2088 270.007 98.2088Z" fill="#594539"/>
<path d="M279.463 103.799C283.157 103.799 286.152 100.179 286.152 95.7139C286.152 91.2487 283.157 87.6289 279.463 87.6289C275.768 87.6289 272.773 91.2487 272.773 95.7139C272.773 100.179 275.768 103.799 279.463 103.799Z" fill="#594539"/>
<path d="M283.122 116.112C286.817 116.112 289.812 112.493 289.812 108.027C289.812 103.562 286.817 99.9424 283.122 99.9424C279.427 99.9424 276.432 103.562 276.432 108.027C276.432 112.493 279.427 116.112 283.122 116.112Z" fill="#594539"/>
<path d="M263.099 89.221H265.925C271.039 89.221 275.943 91.6761 279.558 96.046C283.174 100.416 285.205 106.343 285.205 112.523V128.12C285.205 130.779 284.331 133.329 282.776 135.209C281.22 137.089 279.11 138.145 276.91 138.145H252.112C249.912 138.145 247.802 137.089 246.246 135.209C244.691 133.329 243.817 130.779 243.817 128.12V112.525C243.816 109.465 244.315 106.434 245.284 103.607C246.253 100.779 247.673 98.2101 249.464 96.046C251.254 93.8819 253.38 92.1654 255.72 90.9943C258.059 89.8233 260.567 89.2207 263.099 89.221Z" fill="#594539"/>
<path d="M280.886 171.371C279.509 175.196 271.963 184.371 267.84 189.215C267.123 190.059 266.159 190.528 265.157 190.519C264.156 190.51 263.198 190.025 262.49 189.168C258.48 184.322 251.082 174.46 249.583 170.8C254.209 169.174 265.726 168.46 265.726 168.46C265.726 168.46 274.929 168.813 280.886 171.371Z" fill="#9B643D"/>
<path d="M275.235 137.758H254.869V170.19C254.869 173.705 254.97 175.137 254.97 175.137L274.486 174.933C275.071 173.307 275.332 171.537 275.247 169.767L275.235 137.758Z" fill="url(#paint7_radial)"/>
<path d="M240.433 133.886C240.428 134.931 240.594 135.967 240.92 136.934C241.246 137.901 241.727 138.781 242.335 139.524C242.943 140.267 243.666 140.857 244.462 141.263C245.259 141.668 246.114 141.879 246.978 141.885C247.225 141.885 250.41 141.871 250.654 141.841C253.947 141.425 253.581 138.07 253.596 133.974C253.615 129.918 254.063 126.553 250.818 126.044C250.55 126.002 247.329 125.978 247.052 125.977C245.306 125.966 243.629 126.792 242.387 128.275C241.146 129.759 240.443 131.777 240.433 133.886Z" fill="#9B643D"/>
<path d="M267.036 98.21H261.971C253.691 98.21 246.978 106.323 246.978 116.331V139.773C246.978 149.781 253.691 157.894 261.971 157.894H267.036C275.316 157.894 282.029 149.781 282.029 139.773V116.331C282.029 106.323 275.316 98.21 267.036 98.21Z" fill="#9B643D"/>
<path d="M270.821 131.612C270.829 129.873 270.204 128.459 269.425 128.454C268.646 128.448 268.007 129.853 267.998 131.591C267.99 133.329 268.614 134.743 269.394 134.749C270.173 134.755 270.812 133.35 270.821 131.612Z" fill="#3A312E"/>
<path d="M250.037 150.349L262.817 150.095L263.153 143.291C263.153 142.86 263.065 142.435 262.895 142.055C262.726 141.675 262.481 141.351 262.183 141.114L259.082 138.643C258.758 138.385 258.532 137.982 258.452 137.523C258.371 137.064 258.444 136.586 258.654 136.191L261.354 131.127C261.997 129.919 262.341 128.515 262.345 127.079L262.402 109.218L248.977 109.462L250.037 150.349Z" fill="url(#paint8_radial)"/>
<path d="M255.436 131.462C255.444 129.724 254.819 128.31 254.04 128.305C253.26 128.3 252.622 129.705 252.614 131.443C252.606 133.181 253.231 134.595 254.011 134.6C254.79 134.605 255.428 133.2 255.436 131.462Z" fill="#3A312E"/>
<path d="M288.761 133.886C288.765 134.931 288.6 135.967 288.274 136.934C287.947 137.901 287.467 138.781 286.859 139.524C286.251 140.267 285.528 140.857 284.731 141.263C283.935 141.668 283.08 141.879 282.216 141.885C281.968 141.885 278.783 141.871 278.54 141.841C275.246 141.425 275.613 138.07 275.598 133.974C275.578 129.918 275.13 126.553 278.376 126.044C278.644 126.002 281.864 125.978 282.142 125.977C283.887 125.966 285.565 126.792 286.806 128.275C288.048 129.759 288.751 131.777 288.761 133.886Z" fill="#9B643D"/>
<path d="M269.382 147.638C269.329 148.968 268.895 150.235 268.154 151.22C267.391 152.244 266.402 152.985 265.303 153.354C264.204 153.723 263.041 153.706 261.95 153.305C260.872 152.936 259.947 152.094 259.355 150.944C259.292 150.811 259.259 150.661 259.26 150.507C259.261 150.354 259.295 150.203 259.359 150.071C259.424 149.939 259.516 149.83 259.626 149.755C259.737 149.679 259.862 149.641 259.989 149.643H260.079C260.859 149.668 261.64 149.634 262.417 149.54C263.066 149.456 263.71 149.315 264.344 149.119C264.968 148.922 265.576 148.655 266.161 148.323C266.873 147.905 267.563 147.435 268.229 146.917L268.285 146.875C268.396 146.793 268.522 146.749 268.651 146.747C268.78 146.745 268.908 146.785 269.02 146.862C269.132 146.94 269.225 147.053 269.288 147.189C269.351 147.325 269.383 147.48 269.381 147.636L269.382 147.638Z" fill="#855035"/>
<path d="M276.271 93.8778H252.736L245.393 107.347L246.855 125.985L248.817 112.369C249.176 110.275 250.121 108.395 251.494 107.044C252.866 105.694 254.581 104.957 256.351 104.957H272.664C274.434 104.957 276.149 105.694 277.522 107.045C278.894 108.395 279.839 110.276 280.198 112.371L282.159 125.986L283.622 107.347L276.271 93.8778Z" fill="#594539"/>
<path d="M272.984 109.689C276.679 109.689 279.674 106.069 279.674 101.604C279.674 97.1388 276.679 93.5191 272.984 93.5191C269.29 93.5191 266.295 97.1388 266.295 101.604C266.295 106.069 269.29 109.689 272.984 109.689Z" fill="#594539"/>
<path d="M283.378 279.951L284.472 287.515L276.979 293.73C275.15 295.249 273.194 296.529 271.142 297.549C269.622 298.428 268.028 299.104 266.387 299.564C265.579 299.714 264.036 300.116 261.757 300.768C260.492 301.151 259.182 301.274 257.883 301.134C257.387 300.902 256.942 300.534 256.583 300.059C256.224 299.584 255.961 299.016 255.815 298.397C255.159 298.302 254.317 298.207 253.291 298.113C252.694 297.993 252.122 297.734 251.607 297.349C250.959 296.167 251.201 295.286 252.333 294.707L265.137 287.156L262.438 286.455C260.428 285.994 258.876 285.569 257.781 285.18C256.832 284.738 256.411 284.18 256.516 283.506C256.658 282.755 257.238 282.301 258.257 282.145C260.855 281.502 263.492 281.11 266.141 280.972C267.705 280.883 269.771 280.685 272.339 280.378L283.378 279.951Z" fill="#9B643D"/>
<path d="M324.821 243.048C332.62 253.296 326.056 262.237 323.732 265.723C303.914 286.881 282.305 289.546 282.305 289.546L278.416 280.168C295.297 268.05 299.217 254.426 307.075 244.056C309.291 241.133 317.332 233.205 324.821 243.048Z" fill="#5C8EB6"/>
<path d="M272.104 297.07H188.491L177.559 235.722C177.412 235.207 177.369 234.657 177.433 234.118C177.498 233.579 177.668 233.066 177.929 232.623C178.191 232.179 178.537 231.818 178.938 231.568C179.338 231.319 179.783 231.189 180.233 231.19H257.253C258.02 231.19 258.767 231.479 259.391 232.017C260.015 232.554 260.485 233.314 260.735 234.19L272.104 297.07Z" fill="#CBC2CC"/>
<path d="M283.523 296.559H191.511C189.802 296.559 188.417 298.233 188.417 300.298C188.417 302.363 189.802 304.037 191.511 304.037H283.523C285.231 304.037 286.617 302.363 286.617 300.298C286.617 298.233 285.231 296.559 283.523 296.559Z" fill="#B6B0B7"/>
<path d="M135.526 237.247C134.449 232.667 134.837 226.781 136.689 219.591C138.644 212.353 138.923 205.653 137.525 199.491C136.169 193.391 133 187.504 128.02 181.83C123.699 176.799 121.521 172.342 121.485 168.459C121.467 163.471 121.583 158.347 121.834 153.087L122.212 146.585C122.504 139.136 120.456 131.828 116.48 126.126C111.438 118.658 104.106 114.686 94.483 114.21C83.4398 112.431 74.9996 114.274 69.1624 119.741C64.3078 124.21 60.9812 130.679 59.815 137.919L58.8631 144.341C58.0394 149.52 57.1124 154.53 56.0821 159.371C55.2584 163.134 52.2365 166.868 47.0164 170.574C41.0271 174.727 36.7538 179.58 34.1966 185.134C31.5101 191.185 30.3724 198.064 30.928 204.898C31.2692 212.392 30.4516 218.217 28.4751 222.374C27.1191 225.202 23.2372 229.771 16.8293 236.081C11.3333 241.53 7.80024 247.409 6.23023 253.719C4.72146 259.91 5.94961 267.25 9.91466 275.74C10.9914 277.982 12.5907 281.251 14.7125 285.546C16.1758 288.459 17.1975 291.665 17.7297 295.012C18.1907 298.523 17.7869 305.022 16.5184 314.507C15.4603 321.914 16.0016 329.526 18.0901 336.605C21.8762 349.788 29.7219 360.698 39.9948 367.066C46.7243 371.262 55.8049 374.247 67.2364 376.02C78.2729 377.368 87.4883 376.925 94.8828 374.69C106.204 371.325 116.048 362.893 122.426 351.098C125.884 344.819 127.954 337.575 128.439 330.055C129.134 320.489 130.062 314.063 131.222 310.779C132.422 307.666 134.065 304.832 136.077 302.406C139.011 298.813 142.218 298.039 143.719 296.155C148.429 290.127 150.97 282.088 150.785 273.8C150.541 267.243 148.301 260.561 144.066 253.756C139.116 245.869 136.269 240.366 135.526 237.247Z" fill="url(#paint9_linear)"/>
<path d="M174.851 266.234C176.587 267.698 176.023 268.674 176.023 268.674C176.023 268.674 180.142 269.187 179.979 270.185C179.861 272.203 174.344 272.981 169.834 273.104C164.918 273.58 161.281 274.324 160.037 276.297C157.988 279.556 151.386 284.576 148.584 282.641C148.113 282.317 141.422 287.206 138.077 287.811C133.612 288.62 133.643 279.802 137.745 276.709C141.848 273.617 158.3 264.207 162.348 263.182C165.666 262.348 173.809 265.357 174.851 266.234Z" fill="#F9DDBF"/>
<path d="M143.294 273.045C133.139 275.414 123.005 276.666 114.817 269.25C108.725 263.733 102.269 224.979 102.369 224.986C102.369 224.986 100.141 210.662 85.1306 215.819C73.2819 219.889 81.5744 239.545 81.5744 239.545C81.5744 239.545 87.7753 263.17 90.5583 274.663C93.3413 286.157 101.763 296.713 113.094 296.172C126.912 295.512 133.967 291.093 145.536 284.637L143.294 273.045Z" fill="url(#paint10_radial)"/>
<path d="M90.6472 199.985C86.6751 198.18 83.6659 198.721 76.7765 197.469C71.1103 197.22 65.4366 197.438 59.7948 198.122C52.5976 198.903 45.8243 209.269 44.4302 213.107C40.2058 225.042 40.0745 238.727 40.445 250.381C41.5978 266.896 42.3801 277.071 41.6906 282.487C40.2148 294.077 37.3713 312.133 35.1465 321.992C38.7633 324.542 101.222 327.588 104.961 326.113C101.624 305.051 92.0261 290.262 92.0261 280.404C93.5089 267.856 96.3898 263.458 99.6109 257.07C102.102 249.212 104.808 239.044 103.058 226.236C102.023 215.402 96.508 202.069 90.6472 199.985Z" fill="url(#paint11_radial)"/>
<path d="M59.3719 148.947C58.7971 158.111 60.6629 167.257 64.6967 175.048C66.9276 179.377 69.8433 183.132 73.2768 186.098C76.7557 189.025 80.7246 190.993 84.9025 191.861L85.4072 191.966C89.2648 192.802 93.2232 192.677 97.0393 191.597C100.855 190.518 104.449 188.507 107.599 185.689C115.415 178.699 120.699 168.336 122.351 156.755C123.055 151.936 123.012 147.001 122.225 142.201C121.536 137.697 120.154 133.389 118.15 129.502C116.276 125.861 113.823 122.706 110.933 120.219C107.893 117.504 104.367 115.69 100.641 114.924L91.9857 113.114C88.1608 112.33 84.238 112.617 80.5195 113.954C75.3 115.862 70.6641 119.593 67.195 124.678C63.3761 130.096 60.8546 136.672 59.9028 143.696C59.6515 145.435 59.4743 147.187 59.3719 148.947Z" fill="#DFBC97"/>
<path d="M73.2445 201.638C76.4067 201.848 79.5761 201.848 82.7383 201.638C83.8406 201.522 89.9335 199.93 89.0331 199.152C86.4903 196.956 87.7582 192.088 88.6374 186.246L92.1533 170.844L74.3327 167.23L73.0023 179.649C72.1483 187.741 66.6741 196.249 62.9201 197.949C64.4292 200.018 68.1136 201.394 73.2445 201.638Z" fill="url(#paint12_radial)"/>
<path d="M96.3313 130.398C90.8167 129.101 85.101 130.463 80.4065 134.193C78.1243 135.869 76.1684 138.122 74.6725 140.796C73.1765 143.47 72.1757 146.502 71.7385 149.687L69.3703 166.219C68.8944 169.382 68.994 172.633 69.6621 175.745C70.3303 178.857 71.551 181.756 73.2395 184.241C76.5957 189.706 81.6025 193.348 87.1697 194.373L87.2504 194.39C92.8027 195.679 98.5519 194.291 103.268 190.523C105.532 188.85 107.471 186.607 108.952 183.946C110.432 181.285 111.42 178.269 111.848 175.104L114.216 158.572C114.691 155.405 114.599 152.152 113.948 149.031C113.297 145.91 112.101 142.993 110.44 140.477C107.017 135.057 101.989 131.451 96.4121 130.418L96.3313 130.398Z" fill="#F9DDBF"/>
<path d="M94.0914 182.878L108.291 185.849L112.743 154.761L98.544 151.79L94.0914 182.878Z" fill="url(#paint13_radial)"/>
<path d="M85.0307 164.543C85.1046 164.879 85.2544 165.185 85.4635 165.424C85.6726 165.664 85.9327 165.829 86.2147 165.9C86.4992 165.932 86.7856 165.875 87.0469 165.736C87.3081 165.596 87.5356 165.378 87.7077 165.103C88.1845 164.346 88.4969 163.457 88.6162 162.516C88.7315 161.569 88.6599 160.603 88.4072 159.696C88.3428 159.353 88.196 159.042 87.9853 158.8C87.7746 158.558 87.5094 158.397 87.2231 158.337C86.9369 158.277 86.6424 158.321 86.3767 158.463C86.111 158.605 85.8861 158.839 85.7302 159.136C85.253 159.892 84.9406 160.782 84.8217 161.722C84.7059 162.669 84.7775 163.636 85.0307 164.543Z" fill="#33312D"/>
<path d="M106.697 162.412C106.413 162.381 106.126 162.438 105.865 162.577C105.604 162.717 105.376 162.935 105.204 163.21C104.725 163.97 104.39 164.848 104.223 165.782C104.073 166.716 104.119 167.681 104.357 168.588C104.443 168.918 104.596 169.215 104.804 169.453C105.011 169.69 105.265 169.86 105.541 169.946C105.817 169.98 106.095 169.922 106.345 169.779C106.595 169.635 106.807 169.412 106.96 169.132C107.481 168.442 107.819 167.578 107.928 166.652C108.136 165.736 108.115 164.765 107.868 163.863C107.808 163.511 107.666 163.188 107.458 162.93C107.251 162.673 106.987 162.494 106.697 162.412Z" fill="#33312D"/>
<path d="M95.1765 176.752C95.2014 176.572 95.6906 176.242 96.6442 175.763C97.4575 175.382 98.2184 174.855 98.9013 174.199C99.5757 173.627 100.045 172.766 100.214 171.792C100.252 171.308 100.203 170.82 100.07 170.36C99.9377 169.901 99.7245 169.482 99.4454 169.132C98.3049 167.611 97.5618 165.717 97.3095 163.687L97.3862 161.297C93.7926 161.241 92.125 169.082 91.9423 173.239C91.8827 175.324 93.2909 176.086 95.1765 176.752Z" fill="#F9DDBF"/>
<path d="M72.5712 154.547L71.0218 154.224C70.3144 154.067 69.588 154.087 68.8873 154.282C68.1866 154.478 67.5264 154.845 66.9477 155.361C65.7688 156.388 64.9736 157.937 64.735 159.67C64.4964 161.402 64.8338 163.179 65.6738 164.612C66.0805 165.325 66.6039 165.93 67.2116 166.388C67.8192 166.847 68.4983 167.15 69.2068 167.279L70.7058 167.594L72.5712 154.547Z" fill="#F9DDBF"/>
<path d="M86.0561 139.851L104.223 143.651L105.277 136.294L87.1098 132.494L86.0561 139.851Z" fill="#BF8F68"/>
<path d="M103.34 140.516C103.141 140.103 102.871 139.747 102.549 139.471C102.226 139.195 101.858 139.005 101.47 138.915C101.11 138.851 100.743 138.889 100.397 139.025C100.051 139.161 99.7362 139.393 99.4767 139.701C98.9433 140.265 98.5545 141.001 98.3562 141.824L101.158 121.756C104.168 122.066 107.08 123.197 109.677 125.062C112.274 126.927 114.487 129.479 116.151 132.526C123.841 146.546 120.08 162.478 119.954 163.064C117.963 164.364 115.668 164.817 113.438 164.349C110.111 163.652 107.51 161.24 105.635 157.114C103.743 152.737 103.073 147.738 103.726 142.863C103.749 142.055 103.616 141.252 103.34 140.516Z" fill="#DFBC97"/>
<g style="mix-blend-mode:multiply" opacity="0.5">
<g style="mix-blend-mode:multiply" opacity="0.5">
<path d="M89.6983 183.081C89.0871 183.751 88.3061 184.151 87.4826 184.216C86.6764 184.314 85.8625 184.183 85.1054 183.834C84.3306 183.494 83.6397 182.922 83.0966 182.173C82.52 181.428 82.1957 180.448 82.1881 179.428C82.1906 179.318 82.2181 179.212 82.2675 179.12C82.3169 179.029 82.3863 178.955 82.4681 178.908C82.5499 178.861 82.6408 178.842 82.7309 178.853C82.8209 178.865 82.9066 178.906 82.9785 178.973L83.0189 179.009C83.4915 179.446 83.9917 179.838 84.5149 180.181C84.9985 180.48 85.4945 180.75 86.0007 180.988C86.5055 181.232 87.0384 181.429 87.5866 181.619C88.1741 181.807 88.7695 181.957 89.3702 182.068L89.4298 182.079C89.5567 182.103 89.6705 182.187 89.7462 182.313C89.8219 182.438 89.8533 182.595 89.8336 182.749C89.8196 182.874 89.7721 182.991 89.6983 183.081Z" fill="#BF8F68"/>
</g>
</g>
<path d="M79.4061 124.043C89.9951 116.891 101.395 120.676 101.395 120.676L98.3663 141.832C98.2474 140.9 97.9329 140.021 97.4528 139.278C97.2149 138.848 96.9072 138.48 96.5484 138.199C96.1895 137.917 95.787 137.726 95.3653 137.638C94.5743 137.489 93.7652 137.675 93.0745 138.164C92.3839 138.653 91.8542 139.415 91.5748 140.322C90.6826 145.336 88.2818 149.77 84.8379 152.766C83.228 154.223 81.3861 155.261 79.4281 155.815C77.4701 156.37 75.4383 156.429 73.4606 155.988C70.9535 155.48 68.6022 154.18 66.6449 152.219C66.6953 151.138 67.7411 131.923 79.4061 124.043Z" fill="#DFBC97"/>
<path d="M98.3613 141.816L109.512 144.149C109.512 144.149 112.996 120.138 112.98 120.072C109.673 117.561 105.963 115.928 102.094 115.281L98.3613 141.816Z" fill="url(#paint14_radial)"/>
<path d="M136.943 284.444C143.287 285.064 145.645 285.151 149.975 286.321C156.363 288.046 167.337 291.667 167.778 289.798C168.093 288.929 164.144 286.03 164.144 286.03C164.144 286.03 167.614 287.541 167.861 286.518C168.123 285.42 161.816 280.851 160.148 278.505C162.294 278.726 168.107 279.373 168.115 277.545C168.115 276.221 160.501 275.364 155.473 273.805C140.912 272.171 137.101 272.877 132.694 273.597C128.287 274.317 126.187 282.307 130.599 283.845C132.492 284.504 134.873 284.308 136.943 284.444Z" fill="#F9DDBF"/>
<path d="M74.9283 265.919C70.3858 261.814 68.6163 243.728 68.052 234.785C68.1237 234.111 67.1243 215.886 55.2806 215.204C43.437 214.522 41.5887 231.13 41.5887 231.13C41.5887 231.13 42.3064 258.489 45.4084 270.076C48.4589 281.471 53.6201 292.402 71.5083 295.257C95.8851 299.142 133.488 284.747 133.488 284.747L134.194 273.087C134.194 273.087 92.874 282.123 74.9283 265.919Z" fill="url(#paint15_radial)"/>
<path d="M138.559 297.07H210.794L224.993 247.283C225.119 246.841 225.156 246.369 225.101 245.906C225.045 245.443 224.899 245.002 224.675 244.621C224.45 244.24 224.153 243.93 223.809 243.716C223.465 243.502 223.083 243.39 222.696 243.39H156.123C155.465 243.39 154.823 243.638 154.287 244.1C153.751 244.562 153.348 245.214 153.133 245.967L138.559 297.07Z" fill="#505050"/>
<path d="M113.298 303.17H209.721C211.248 303.17 212.486 301.674 212.486 299.828V299.192C212.486 297.346 211.248 295.85 209.721 295.85H113.298C111.771 295.85 110.533 297.346 110.533 299.192V299.828C110.533 301.674 111.771 303.17 113.298 303.17Z" fill="#737373"/>
<path d="M444.694 272.208L443.551 276.213H448.499L449.641 272.208H444.694Z" fill="white"/>
<path d="M443.432 272.208H438.952L437.809 276.213H442.29L443.432 272.208Z" fill="white"/>
<path d="M445.099 270.791H450.045L451.187 266.785H446.242L445.099 270.791Z" fill="white"/>
<path d="M443.837 270.791L444.98 266.785H440.499L439.357 270.791H443.837Z" fill="white"/>
<path d="M461.816 295.85H579.92V297.495C579.92 299.323 579.319 301.077 578.249 302.37C577.179 303.664 575.728 304.39 574.215 304.39H461.816V295.85Z" fill="#C2C2C2"/>
<path d="M352.468 152.21C354.588 168.184 364.016 180.293 375.364 183.428H375.373C375.499 183.456 375.627 183.495 375.751 183.514C378.862 184.319 382.07 184.419 385.211 183.808C386.17 183.624 387.118 183.372 388.053 183.055C389.244 182.648 390.411 182.142 391.545 181.542C393.165 180.686 394.706 179.63 396.146 178.391C404.736 171.024 409.737 157.558 408.335 143.143C408.275 142.552 408.206 141.975 408.133 141.399C407.283 134.846 405.103 128.65 401.789 123.363C401.758 123.327 401.735 123.279 401.701 123.232C401.499 122.913 401.286 122.606 401.079 122.298C401.058 122.271 401.046 122.242 401.025 122.214C400.992 122.161 400.956 122.112 400.918 122.066C399.747 120.358 398.449 118.784 397.041 117.364C397.022 117.341 397.002 117.32 396.98 117.302C393.945 114.098 390.345 111.773 386.455 110.504C382.564 109.235 378.486 109.054 374.529 109.976C370.572 110.899 366.841 112.899 363.621 115.826C360.4 118.753 357.773 122.529 355.942 126.867C354.754 129.49 353.829 132.275 353.186 135.163C353.064 135.693 352.96 136.22 352.856 136.757C352.414 139.123 352.15 141.532 352.067 143.955C352.036 144.573 352.024 145.198 352.029 145.83C352.039 147.222 352.104 148.623 352.223 150.045C352.223 150.045 352.223 150.076 352.231 150.167C352.304 150.848 352.376 151.524 352.468 152.21Z" fill="#3A312E"/>
<path d="M340.744 256.798C359.216 276.358 389.759 275.199 405.166 262.313C418.476 251.182 427.278 235.365 420.163 207.988C418.163 200.291 412.491 185.816 410.068 173.199C408.591 165.443 407.994 157.481 408.294 149.531L351.996 145.573C351.128 153.865 349.459 162.005 347.022 169.826C342.399 184.621 334.213 201.528 332.244 207.679C325.121 229.95 333.122 248.726 340.744 256.798Z" fill="#3A312E"/>
<path d="M365.708 187.36L381.72 186.239L381.834 166.695C381.834 166.695 370.165 164.027 365.884 163.723C368.634 175.144 365.708 187.36 365.708 187.36Z" fill="#BF8F68"/>
<path d="M400.233 166.349C400.956 164.306 400.262 161.988 398.682 161.171C397.102 160.354 395.235 161.349 394.512 163.392C393.789 165.435 394.484 167.753 396.064 168.57C397.643 169.386 399.51 168.392 400.233 166.349Z" fill="#F8C954"/>
<path d="M365.708 187.36L381.72 186.239L381.834 166.695C381.834 166.695 370.165 164.027 365.884 163.723C368.634 175.144 365.708 187.36 365.708 187.36Z" fill="url(#paint16_radial)"/>
<path d="M364.479 146.954C363.276 161.96 372.401 175.258 381.337 175.837C390.272 176.417 398.488 164.735 399.691 149.729C400.895 134.723 394.517 123.468 385.584 122.889C376.65 122.311 365.683 131.948 364.479 146.954Z" fill="#BF8F68"/>
<path d="M380.47 148.868C380.62 147.14 380.061 145.653 379.222 145.546C378.383 145.44 377.58 146.754 377.43 148.483C377.28 150.211 377.839 151.698 378.679 151.804C379.518 151.911 380.32 150.596 380.47 148.868Z" fill="#3A312E"/>
<path d="M385.886 136.34L385.634 144.392C385.606 147.6 386.572 150.704 388.342 153.095C388.727 153.724 388.923 154.491 388.901 155.271C388.878 156.052 388.637 156.801 388.217 157.395C387.681 158.06 385.451 159.458 385.299 161.36L384.901 168.802L397.286 169.723L399.334 136.723L385.886 136.34Z" fill="url(#paint17_radial)"/>
<path d="M386.903 165.331C386.693 165.809 386.396 166.224 386.035 166.544C385.673 166.865 385.256 167.082 384.815 167.179C384.004 167.396 383.162 167.374 382.359 167.115C381.556 166.856 380.817 166.368 380.202 165.692C379.868 165.315 379.598 164.861 379.409 164.358C379.191 163.807 379.15 163.179 379.292 162.593C379.317 162.504 379.36 162.423 379.417 162.358C379.474 162.293 379.544 162.247 379.619 162.222C379.695 162.197 379.774 162.195 379.85 162.216C379.927 162.237 379.998 162.28 380.057 162.342L380.259 162.558C380.651 162.918 381.094 163.189 381.566 163.358C382.045 163.569 382.56 163.761 383.08 163.937C383.6 164.114 384.119 164.257 384.634 164.379C385.165 164.505 385.71 164.537 386.249 164.473L386.376 164.455C386.467 164.441 386.559 164.457 386.644 164.501C386.728 164.544 386.801 164.614 386.856 164.703C386.911 164.792 386.945 164.897 386.955 165.008C386.965 165.118 386.951 165.229 386.914 165.331H386.903Z" fill="#9B643D"/>
<path d="M393.247 121.089C392.265 124.35 390.68 127.297 388.612 129.704C386.544 132.112 384.048 133.917 381.315 134.981C367.467 140.76 365.243 148.241 365.147 148.401C354.382 151.352 357.172 138.189 367.345 123.879C377.783 109.19 393.247 121.089 393.247 121.089Z" fill="#3A312E"/>
<path d="M393.555 149.843C393.746 148.119 393.224 146.611 392.389 146.476C391.554 146.34 390.721 147.628 390.53 149.352C390.338 151.077 390.86 152.584 391.696 152.72C392.531 152.855 393.363 151.567 393.555 149.843Z" fill="#3A312E"/>
<path d="M369.706 160.395L363.436 159.985C362.805 159.946 362.187 159.751 361.62 159.412C361.054 159.074 360.551 158.599 360.142 158.016C359.733 157.434 359.428 156.757 359.244 156.026C359.059 155.296 359.001 154.528 359.072 153.769C359.201 152.195 359.823 150.741 360.81 149.703C361.797 148.665 363.074 148.121 364.381 148.184L370.652 148.594L369.706 160.395Z" fill="#BF8F68"/>
<path d="M367.084 164.51C367.807 162.467 367.113 160.149 365.533 159.332C363.953 158.516 362.087 159.51 361.364 161.553C360.641 163.596 361.335 165.915 362.915 166.731C364.495 167.548 366.361 166.554 367.084 164.51Z" fill="#F8C954"/>
<path d="M349.264 216.079C349.243 220.216 349.899 224.317 351.194 228.147C352.489 231.976 354.398 235.458 356.81 238.392C359.223 241.327 362.092 243.656 365.253 245.245C368.413 246.834 371.802 247.652 375.225 247.652C378.648 247.652 382.037 246.834 385.198 245.245C388.358 243.656 391.227 241.327 393.64 238.392C396.053 235.458 397.962 231.976 399.257 228.147C400.552 224.317 401.208 220.216 401.186 216.079C401.186 215.801 401.186 215.522 401.177 215.243C401.179 215.217 401.179 215.19 401.177 215.164C401.07 210.542 400.117 206.005 398.386 201.881C396.655 197.757 394.189 194.149 391.166 191.314C390.522 190.706 389.854 190.137 389.162 189.606C384.992 186.402 380.152 184.702 375.21 184.707C370.269 184.712 365.431 186.421 361.265 189.633C360.573 190.167 359.904 190.74 359.258 191.35C356.244 194.185 353.787 197.791 352.063 201.908C350.338 206.026 349.388 210.554 349.281 215.168C349.28 215.194 349.28 215.221 349.281 215.247C349.271 215.522 349.264 215.801 349.264 216.079Z" fill="#FFB900"/>
<path d="M346.323 296.826C346.323 306.091 349.368 314.977 354.789 321.529C360.21 328.08 367.562 331.761 375.228 331.761C391.192 331.761 406.129 315.547 406.129 296.259C406.129 276.971 391.189 261.897 375.228 261.897C367.563 261.898 360.211 265.578 354.791 272.128C349.37 278.678 346.324 287.562 346.323 296.826Z" fill="#EAA306"/>
<path d="M401.189 218.063L402.896 276.196L454.032 286.932V293.85H395.719C393.58 293.85 391.528 292.823 390.015 290.995C388.502 289.167 387.652 286.687 387.652 284.101L382.458 217.747L401.189 218.063Z" fill="#EDA605"/>
<path d="M349.517 281.82L403.756 291.192L398.954 265.106C397.463 254.053 397.463 242.782 398.954 231.729L401.188 215.165H349.264L351.499 231.729C352.99 242.782 352.99 254.053 351.499 265.106L349.517 281.82Z" fill="url(#paint18_radial)"/>
<path d="M361.264 189.629C365.507 192.584 370.319 194.137 375.216 194.133C380.112 194.128 384.922 192.566 389.161 189.603C384.991 186.398 380.151 184.698 375.209 184.703C370.268 184.708 365.43 186.417 361.264 189.629Z" fill="#BF8F68"/>
<path d="M367.786 216.079L364.513 277.589L415.649 288.325V296.855H357.34C356.28 296.857 355.23 296.605 354.25 296.116C353.27 295.627 352.38 294.909 351.63 294.003C350.88 293.098 350.285 292.023 349.879 290.839C349.473 289.656 349.264 288.387 349.264 287.106V216.079H367.786Z" fill="url(#paint19_radial)"/>
<path d="M404.138 297.07H469.807L482.707 251.835C482.824 251.43 482.858 250.997 482.808 250.573C482.757 250.148 482.624 249.745 482.418 249.395C482.212 249.046 481.939 248.762 481.624 248.566C481.308 248.37 480.958 248.269 480.604 248.27H420.12C419.518 248.27 418.93 248.497 418.439 248.92C417.948 249.343 417.578 249.941 417.382 250.629L404.138 297.07Z" fill="#737373"/>
<path d="M469.44 297.07H395.645C394.28 297.07 393.174 298.407 393.174 300.055V300.185C393.174 301.833 394.28 303.17 395.645 303.17H469.44C470.804 303.17 471.91 301.833 471.91 300.185V300.055C471.91 298.407 470.804 297.07 469.44 297.07Z" fill="#939393"/>
</g>
<defs>
<radialGradient id="paint0_radial" cx="0" cy="0" r="1" gradientUnits="userSpaceOnUse" gradientTransform="translate(559.483 176.324) scale(21.4677 25.9458)">
<stop stop-color="#594539"/>
<stop offset="0.197" stop-color="#5C4739" stop-opacity="0.949"/>
<stop offset="0.417" stop-color="#664B3A" stop-opacity="0.798"/>
<stop offset="0.649" stop-color="#77533B" stop-opacity="0.547"/>
<stop offset="0.886" stop-color="#8E5E3C" stop-opacity="0.199"/>
<stop offset="1" stop-color="#9B643D" stop-opacity="0"/>
</radialGradient>
<radialGradient id="paint1_radial" cx="0" cy="0" r="1" gradientUnits="userSpaceOnUse" gradientTransform="translate(563.947 165.003) rotate(0.854843) scale(14.4268 15.713)">
<stop stop-color="#33312D"/>
<stop offset="0.319" stop-color="#4C3D31" stop-opacity="0.76"/>
<stop offset="0.897" stop-color="#8E5E3B" stop-opacity="0.127"/>
<stop offset="1" stop-color="#9B643D" stop-opacity="0"/>
</radialGradient>
<radialGradient id="paint2_radial" cx="0" cy="0" r="1" gradientUnits="userSpaceOnUse" gradientTransform="translate(566.66 265.093) scale(32.9388 39.8098)">
<stop offset="0.303" stop-color="#7359AE"/>
<stop offset="0.767" stop-color="#8867C8"/>
</radialGradient>
<radialGradient id="paint3_radial" cx="0" cy="0" r="1" gradientUnits="userSpaceOnUse" gradientTransform="translate(62021.9 27346.7) scale(3980.15 3973.33)">
<stop offset="0.303" stop-color="#7359AE"/>
<stop offset="0.767" stop-color="#8867C8"/>
</radialGradient>
<radialGradient id="paint4_radial" cx="0" cy="0" r="1" gradientUnits="userSpaceOnUse" gradientTransform="translate(226.654 233.933) rotate(-5.07108) scale(19.4257 23.8037)">
<stop offset="0.259" stop-color="#45779E"/>
<stop offset="0.84" stop-color="#5C8EB6"/>
</radialGradient>
<radialGradient id="paint5_radial" cx="0" cy="0" r="1" gradientUnits="userSpaceOnUse" gradientTransform="translate(353812 37752.9) rotate(-174.929) scale(1216.57 2200.07)">
<stop offset="0.259" stop-color="#45779E"/>
<stop offset="0.84" stop-color="#5C8EB6"/>
</radialGradient>
<radialGradient id="paint6_radial" cx="0" cy="0" r="1" gradientUnits="userSpaceOnUse" gradientTransform="translate(22632 36811.8) scale(3855.76 7758.71)">
<stop offset="0.259" stop-color="#45779E"/>
<stop offset="0.84" stop-color="#5C8EB6"/>
</radialGradient>
<radialGradient id="paint7_radial" cx="0" cy="0" r="1" gradientUnits="userSpaceOnUse" gradientTransform="translate(265.056 156.445) scale(13.0933 15.8246)">
<stop offset="0.173" stop-color="#724937"/>
<stop offset="0.703" stop-color="#9B643D"/>
</radialGradient>
<radialGradient id="paint8_radial" cx="0" cy="0" r="1" gradientUnits="userSpaceOnUse" gradientTransform="translate(5836.87 7733.68) rotate(0.873797) scale(180.987 473.212)">
<stop offset="0.173" stop-color="#724937"/>
<stop offset="0.703" stop-color="#9B643D"/>
</radialGradient>
<linearGradient id="paint9_linear" x1="66.9557" y1="381.16" x2="85.9405" y2="245.023" gradientUnits="userSpaceOnUse">
<stop stop-color="#BB946C"/>
<stop offset="1" stop-color="#DFBC97"/>
</linearGradient>
<radialGradient id="paint10_radial" cx="0" cy="0" r="1" gradientUnits="userSpaceOnUse" gradientTransform="translate(83.3162 263.661) rotate(0.0930621) scale(33.5617 40.5626)">
<stop offset="0.222" stop-color="#D87401"/>
<stop offset="0.83" stop-color="#FF8C00"/>
</radialGradient>
<radialGradient id="paint11_radial" cx="0" cy="0" r="1" gradientUnits="userSpaceOnUse" gradientTransform="translate(4566.04 29018.5) scale(3121.13 5772.89)">
<stop offset="0.222" stop-color="#D87401"/>
<stop offset="0.83" stop-color="#FF8C00"/>
</radialGradient>
<radialGradient id="paint12_radial" cx="0" cy="0" r="1" gradientUnits="userSpaceOnUse" gradientTransform="translate(93.8219 173.577) scale(22.9101 27.6891)">
<stop offset="0.114" stop-color="#9A6541"/>
<stop offset="0.999" stop-color="#F9DDBF"/>
</radialGradient>
<radialGradient id="paint13_radial" cx="0" cy="0" r="1" gradientUnits="userSpaceOnUse" gradientTransform="translate(97.2578 169.019) rotate(-168.15) scale(9.20648 10.8886)">
<stop stop-color="#9A6541" stop-opacity="0.847"/>
<stop offset="1" stop-color="#F9DDBF" stop-opacity="0"/>
</radialGradient>
<radialGradient id="paint14_radial" cx="0" cy="0" r="1" gradientUnits="userSpaceOnUse" gradientTransform="translate(88.4189 111.888) rotate(11.8498) scale(21.4333 29.6075)">
<stop stop-color="#5C2C07" stop-opacity="0.847"/>
<stop offset="1" stop-color="#BE906B" stop-opacity="0"/>
</radialGradient>
<radialGradient id="paint15_radial" cx="0" cy="0" r="1" gradientUnits="userSpaceOnUse" gradientTransform="translate(3660.24 19670.7) scale(3703.85 3229.21)">
<stop offset="0.222" stop-color="#D87401"/>
<stop offset="0.83" stop-color="#FF8C00"/>
</radialGradient>
<radialGradient id="paint16_radial" cx="0" cy="0" r="1" gradientUnits="userSpaceOnUse" gradientTransform="translate(379.305 167.152) rotate(180) scale(12.5351 15.15)">
<stop offset="0.143" stop-color="#9B643D"/>
<stop offset="0.248" stop-color="#9D663F" stop-opacity="0.953"/>
<stop offset="0.404" stop-color="#A16C45" stop-opacity="0.824"/>
<stop offset="0.591" stop-color="#A9754E" stop-opacity="0.613"/>
<stop offset="0.8" stop-color="#B3815A" stop-opacity="0.322"/>
<stop offset="1" stop-color="#BF8F68" stop-opacity="0"/>
</radialGradient>
<radialGradient id="paint17_radial" cx="0" cy="0" r="1" gradientUnits="userSpaceOnUse" gradientTransform="translate(389.666 156.316) rotate(9.01233) scale(7.98117 10.2684)">
<stop stop-color="#9B643D"/>
<stop offset="0.27" stop-color="#A46E47" stop-opacity="0.756"/>
<stop offset="0.868" stop-color="#BA8962" stop-opacity="0.141"/>
<stop offset="1" stop-color="#BF8F68" stop-opacity="0"/>
</radialGradient>
<radialGradient id="paint18_radial" cx="0" cy="0" r="1" gradientUnits="userSpaceOnUse" gradientTransform="translate(370.441 274.176) scale(22.6204 27.339)">
<stop offset="0.302" stop-color="#EAA306"/>
<stop offset="0.84" stop-color="#FFB900"/>
</radialGradient>
<radialGradient id="paint19_radial" cx="0" cy="0" r="1" gradientUnits="userSpaceOnUse" gradientTransform="translate(26758 19558.9) scale(850.649 1035.07)">
<stop offset="0.302" stop-color="#EAA306"/>
<stop offset="0.84" stop-color="#FFB900"/>
</radialGradient>
<clipPath id="clip0">
<rect width="642" height="366" fill="white"/>
</clipPath>
</defs>
</svg>
